<svg xmlns="http://www.w3.org/2000/svg" viewBox="0 0 512 512" role="img" aria-label="WorkControl">
  <defs>
    <linearGradient id="bg" x1="78" y1="42" x2="430" y2="470" gradientUnits="userSpaceOnUse">
      <stop stop-color="#38bdf8"/>
      <stop offset=".48" stop-color="#2563eb"/>
      <stop offset="1" stop-color="#1d4ed8"/>
    </linearGradient>
    <filter id="shadow" x="50" y="42" width="412" height="432" color-interpolation-filters="sRGB" filterUnits="userSpaceOnUse">
      <feDropShadow dx="0" dy="20" stdDeviation="22" flood-color="#0f172a" flood-opacity=".24"/>
    </filter>
  </defs>
  <rect width="512" height="512" rx="112" fill="#eff6ff"/>
  <g filter="url(#shadow)">
    <rect x="64" y="56" width="384" height="400" rx="96" fill="url(#bg)"/>
  </g>
  <path fill="#dbeafe" d="M176 128h160c22.1 0 40 17.9 40 40v192c0 22.1-17.9 40-40 40H176c-22.1 0-40-17.9-40-40V168c0-22.1 17.9-40 40-40Z"/>
  <path fill="#fff" d="M184 154h144c14.4 0 26 11.6 26 26v166c0 14.4-11.6 26-26 26H184c-14.4 0-26-11.6-26-26V180c0-14.4 11.6-26 26-26Z"/>
  <rect x="210" y="106" width="92" height="56" rx="24" fill="#bfdbfe"/>
  <rect x="224" y="122" width="64" height="18" rx="9" fill="#2563eb"/>
  <path fill="#93c5fd" d="M200 210h112c8.8 0 16 7.2 16 16s-7.2 16-16 16H200c-8.8 0-16-7.2-16-16s7.2-16 16-16Zm0 62h72c8.8 0 16 7.2 16 16s-7.2 16-16 16h-72c-8.8 0-16-7.2-16-16s7.2-16 16-16Z"/>
  <circle cx="332" cy="331" r="72" fill="#22c55e"/>
  <path fill="none" stroke="#fff" stroke-linecap="round" stroke-linejoin="round" stroke-width="32" d="m292 331 28 28 58-64"/>
</svg>
